# Blender 4.3.0
# www.blender.org
mtllib sstar.mtl
o ss
v -22.390059 0.000001 -3.985062
v 137.664703 -0.000006 -0.000010
v -19.368340 -19.711788 0.000001
v -90.991974 0.000004 0.000007
v -19.368340 19.711788 0.000001
v -22.390059 0.000001 3.985065
v -18.690275 0.000001 -3.928050
v -19.391100 -5.249673 0.000001
v -19.391100 5.249675 0.000001
v -18.690275 0.000001 3.928053
v -26.252954 0.000001 -3.610235
v -25.988808 -5.499453 0.000002
v -25.988808 5.499455 0.000002
v -26.252954 0.000001 3.610239
v -0.010536 22.390055 -3.985061
v 0.064778 -137.664688 -0.000010
v -19.720901 19.359062 0.000001
v -0.042816 90.991959 0.000007
v 19.702671 19.377613 0.000001
v -0.010536 22.390055 3.985065
v -0.008795 18.690273 -3.928051
v -5.258798 19.388628 0.000001
v 5.240549 19.393568 0.000001
v -0.008795 18.690273 3.928053
v -0.012353 26.252953 -3.610235
v -5.511683 25.986216 0.000002
v 5.487225 25.991390 0.000002
v -0.012353 26.252953 3.610239
v 22.389221 -0.193548 -3.985061
v -137.659561 1.190024 -0.000010
v 19.538010 19.543625 0.000001
v 90.988571 -0.786568 0.000007
v 19.197220 -19.878477 0.000001
v 22.389221 -0.193548 3.985065
v 18.689577 -0.161566 -3.928051
v 19.435755 5.081854 0.000001
v 19.344995 -5.417101 0.000001
v 18.689577 -0.161566 3.928053
v 26.251976 -0.226940 -3.610235
v 26.035374 5.274592 0.000002
v 25.940298 -5.723906 0.000002
v 26.251976 -0.226940 3.610240
v 0.116599 -22.389755 -3.985061
v -0.716907 137.662842 -0.000010
v 19.812386 -19.265425 0.000001
v 0.473853 -90.990738 0.000007
v -19.610659 -19.470730 0.000001
v 0.116599 -22.389755 3.985065
v 0.097332 -18.690023 -3.928051
v 5.350584 -19.363497 0.000001
v -5.148621 -19.418177 0.000001
v 0.097332 -18.690023 3.928053
v 0.136716 -26.252600 -3.610235
v 5.634721 -25.959816 0.000002
v -5.364040 -26.017096 0.000002
v 0.136716 -26.252600 3.610239
v -16.391657 -15.252154 -3.985062
v 100.783691 93.777489 -0.000010
v -0.751759 -27.624662 0.000001
v -66.614799 -61.983925 0.000007
v -27.607183 1.237155 0.000001
v -16.391657 -15.252154 3.985065
v -13.683065 -12.731855 -3.928050
v -10.620046 -17.052521 0.000001
v -17.772224 -9.365995 0.000001
v -13.683065 -12.731855 3.928053
v -19.219666 -17.883572 -3.610235
v -15.280046 -21.729757 0.000002
v -22.772526 -13.677506 0.000002
v -19.219666 -17.883572 3.610239
v 16.379316 15.265409 -3.985061
v -100.707809 -93.858978 -0.000010
v 0.729414 27.625263 0.000001
v 66.564644 62.037785 0.000007
v 27.608177 -1.214825 0.000001
v 16.379316 15.265409 3.985065
v 13.672763 12.742918 -3.928050
v 10.606250 17.061106 0.000001
v 17.764643 9.380369 0.000001
v 13.672762 12.742918 3.928053
v 19.205196 17.899111 -3.610235
v 15.262464 21.742109 0.000002
v 22.761456 13.695920 0.000002
v 19.205196 17.899111 3.610240
v 16.534475 -15.097215 -3.985061
v -101.661789 92.824837 -0.000010
v 27.594320 1.496919 0.000001
v 67.195198 -61.354252 0.000007
v 1.011708 -27.616365 0.000001
v 16.534475 -15.097215 3.985065
v 13.802281 -12.602517 -3.928050
v 17.859583 -9.198322 0.000001
v 10.780060 -16.951817 0.000001
v 13.802279 -12.602517 3.928053
v 19.387123 -17.701895 -3.610235
v 22.900240 -13.462581 0.000002
v 15.483873 -21.584988 0.000002
v 19.387123 -17.701895 3.610240
v -16.352962 15.293638 -3.985062
v 100.545761 -94.032539 -0.000010
v -27.610229 -1.167204 0.000001
v -66.457542 62.152504 0.000007
v -0.681765 27.626480 0.000001
v -16.352962 15.293638 3.985065
v -13.650762 12.766483 -3.928050
v -17.748436 9.410995 0.000001
v -10.576806 17.079374 0.000001
v -13.650762 12.766483 3.928053
v -19.174295 17.932207 -3.610235
v -22.737799 13.735160 0.000002
v -15.224941 21.768400 0.000002
v -19.174295 17.932207 3.610239
vn 0.7998 0.0013 -0.6002
vn 0.7998 0.0001 -0.6002
vn -0.5265 -0.2453 -0.8140
vn -0.3063 -0.4122 -0.8581
vn -0.1932 -0.0000 -0.9812
vn -0.3063 0.4122 -0.8581
vn -0.5265 0.2453 -0.8140
vn 0.7998 -0.0013 -0.6002
vn 0.7998 -0.0001 -0.6002
vn 0.7998 0.0002 0.6002
vn 0.7998 0.0013 0.6002
vn -0.1932 -0.0000 0.9812
vn -0.3063 -0.4122 0.8581
vn -0.5265 -0.2453 0.8140
vn -0.5265 0.2453 0.8140
vn -0.3063 0.4122 0.8581
vn 0.7998 -0.0002 0.6002
vn 0.7998 -0.0013 0.6002
vn 0.0164 -0.6004 -0.7995
vn 0.0201 -0.6007 -0.7992
vn 0.0180 -0.6005 -0.7994
vn 0.0180 0.6005 -0.7994
vn 0.0201 0.6007 -0.7992
vn 0.0164 0.6004 -0.7995
vn 0.0180 -0.6005 0.7994
vn 0.0201 -0.6007 0.7992
vn 0.0164 -0.6004 0.7995
vn 0.0164 0.6004 0.7995
vn 0.0201 0.6007 0.7992
vn 0.0180 0.6005 0.7994
vn -0.1932 0.0001 0.9812
vn -0.1932 -0.0001 -0.9812
vn -0.0465 -0.5498 -0.8340
vn -0.0636 -0.5498 -0.8329
vn -0.0636 0.5498 -0.8329
vn -0.0465 0.5498 -0.8340
vn -0.0636 -0.5498 0.8329
vn -0.0465 -0.5498 0.8340
vn -0.0465 0.5498 0.8340
vn -0.0636 0.5498 0.8329
vn 0.0016 -0.7998 -0.6002
vn 0.0004 -0.7998 -0.6002
vn -0.2455 0.5264 -0.8140
vn -0.4124 0.3061 -0.8581
vn -0.0001 0.1932 -0.9812
vn 0.4121 0.3065 -0.8581
vn 0.2450 0.5267 -0.8140
vn -0.0009 -0.7998 -0.6002
vn 0.0002 -0.7998 -0.6002
vn 0.0004 -0.7998 0.6002
vn 0.0016 -0.7998 0.6002
vn -0.0001 0.1932 0.9812
vn -0.4124 0.3061 0.8581
vn -0.2455 0.5264 0.8140
vn 0.2450 0.5267 0.8140
vn 0.4121 0.3065 0.8581
vn 0.0003 -0.7998 0.6002
vn -0.0009 -0.7998 0.6002
vn -0.6004 -0.0167 -0.7995
vn -0.6007 -0.0204 -0.7992
vn -0.6005 -0.0183 -0.7994
vn 0.6006 -0.0177 -0.7994
vn 0.6007 -0.0198 -0.7992
vn 0.6004 -0.0162 -0.7995
vn -0.6005 -0.0183 0.7994
vn -0.6007 -0.0204 0.7992
vn -0.6004 -0.0167 0.7995
vn 0.6004 -0.0162 0.7995
vn 0.6007 -0.0198 0.7992
vn 0.6006 -0.0177 0.7994
vn -0.0000 0.1932 -0.9812
vn -0.0000 0.1932 0.9812
vn -0.5498 0.0463 -0.8340
vn -0.5498 0.0634 -0.8329
vn 0.5498 0.0639 -0.8329
vn 0.5497 0.0468 -0.8340
vn -0.5498 0.0634 0.8329
vn -0.5498 0.0463 0.8340
vn 0.5497 0.0468 0.8340
vn 0.5498 0.0639 0.8329
vn -0.7998 0.0057 -0.6002
vn -0.7998 0.0069 -0.6002
vn 0.5286 0.2407 -0.8140
vn 0.3098 0.4096 -0.8581
vn 0.1932 -0.0017 -0.9812
vn 0.3027 -0.4149 -0.8581
vn 0.5244 -0.2498 -0.8140
vn -0.7998 0.0082 -0.6002
vn -0.7998 0.0071 -0.6002
vn -0.7998 0.0069 0.6002
vn -0.7998 0.0057 0.6002
vn 0.1932 -0.0017 0.9812
vn 0.3098 0.4096 0.8581
vn 0.5286 0.2407 0.8140
vn 0.5244 -0.2498 0.8140
vn 0.3027 -0.4149 0.8581
vn -0.7998 0.0071 0.6002
vn -0.7998 0.0082 0.6002
vn -0.0112 0.6005 -0.7995
vn -0.0149 0.6008 -0.7992
vn -0.0128 0.6007 -0.7994
vn -0.0232 -0.6004 -0.7994
vn -0.0253 -0.6005 -0.7992
vn -0.0216 -0.6003 -0.7995
vn -0.0128 0.6007 0.7994
vn -0.0149 0.6008 0.7992
vn -0.0112 0.6005 0.7995
vn -0.0216 -0.6003 0.7995
vn -0.0253 -0.6005 0.7992
vn -0.0232 -0.6004 0.7994
vn 0.1932 -0.0016 -0.9812
vn 0.1932 -0.0016 0.9812
vn 0.0513 0.5493 -0.8340
vn 0.0684 0.5492 -0.8329
vn 0.0589 -0.5503 -0.8329
vn 0.0418 -0.5501 -0.8340
vn 0.0684 0.5492 0.8329
vn 0.0513 0.5493 0.8340
vn 0.0418 -0.5501 0.8340
vn 0.0589 -0.5503 0.8329
vn -0.0054 0.7998 -0.6002
vn -0.0043 0.7998 -0.6002
vn 0.2480 -0.5253 -0.8140
vn 0.4138 -0.3041 -0.8581
vn 0.0010 -0.1932 -0.9812
vn -0.4106 -0.3084 -0.8581
vn -0.2425 -0.5278 -0.8140
vn -0.0029 0.7998 -0.6002
vn -0.0041 0.7998 -0.6002
vn -0.0042 0.7998 0.6002
vn -0.0054 0.7998 0.6002
vn 0.0010 -0.1932 0.9812
vn 0.4138 -0.3041 0.8581
vn 0.2480 -0.5253 0.8140
vn -0.2425 -0.5278 0.8140
vn -0.4106 -0.3084 0.8581
vn -0.0041 0.7998 0.6002
vn -0.0029 0.7998 0.6002
vn 0.6003 0.0196 -0.7995
vn 0.6006 0.0232 -0.7992
vn 0.6004 0.0211 -0.7994
vn -0.6006 0.0149 -0.7994
vn -0.6008 0.0170 -0.7992
vn -0.6005 0.0133 -0.7995
vn 0.6004 0.0211 0.7994
vn 0.6006 0.0232 0.7992
vn 0.6003 0.0196 0.7995
vn -0.6005 0.0133 0.7995
vn -0.6008 0.0170 0.7992
vn -0.6006 0.0149 0.7994
vn 0.0009 -0.1932 0.9812
vn 0.0012 -0.1932 -0.9812
vn 0.0011 -0.1932 0.9812
vn 0.5500 -0.0436 -0.8340
vn 0.5501 -0.0608 -0.8329
vn -0.5495 -0.0665 -0.8329
vn -0.5495 -0.0494 -0.8340
vn 0.5501 -0.0608 0.8329
vn 0.5500 -0.0436 0.8340
vn -0.5495 -0.0494 0.8340
vn -0.5495 -0.0665 0.8329
vn 0.5847 0.5458 -0.6002
vn 0.5855 0.5449 -0.6002
vn -0.2184 -0.5383 -0.8140
vn 0.0566 -0.5104 -0.8581
vn -0.1414 -0.1316 -0.9812
vn -0.5050 0.0932 -0.8581
vn -0.5526 -0.1791 -0.8140
vn 0.5864 0.5439 -0.6002
vn 0.5856 0.5448 -0.6002
vn 0.5855 0.5450 0.6002
vn 0.5847 0.5458 0.6002
vn -0.1414 -0.1316 0.9812
vn 0.0566 -0.5104 0.8581
vn -0.2184 -0.5383 0.8140
vn -0.5526 -0.1791 0.8140
vn -0.5050 0.0932 0.8581
vn 0.5856 0.5448 0.6002
vn 0.5864 0.5439 0.6002
vn 0.4210 -0.4284 -0.7995
vn 0.4239 -0.4261 -0.7992
vn 0.4223 -0.4274 -0.7994
vn -0.3959 0.4519 -0.7994
vn -0.3945 0.4534 -0.7992
vn -0.3970 0.4508 -0.7995
vn 0.4223 -0.4274 0.7994
vn 0.4239 -0.4261 0.7992
vn 0.4210 -0.4284 0.7995
vn -0.3970 0.4508 0.7995
vn -0.3945 0.4534 0.7992
vn -0.3959 0.4519 0.7994
vn -0.1415 -0.1316 -0.9812
vn -0.1416 -0.1316 0.9811
vn -0.1414 -0.1317 0.9812
vn 0.3404 -0.4342 -0.8340
vn 0.3280 -0.4459 -0.8329
vn -0.4211 0.3592 -0.8329
vn -0.4085 0.3708 -0.8340
vn 0.3280 -0.4459 0.8329
vn 0.3404 -0.4342 0.8340
vn -0.4085 0.3708 0.8340
vn -0.4211 0.3592 0.8329
vn -0.5842 -0.5462 -0.6002
vn -0.5851 -0.5454 -0.6002
vn 0.2180 0.5384 -0.8140
vn -0.0570 0.5104 -0.8581
vn 0.1413 0.1317 -0.9812
vn 0.5051 -0.0928 -0.8581
vn 0.5524 0.1796 -0.8140
vn -0.5860 -0.5444 -0.6002
vn -0.5852 -0.5453 -0.6002
vn -0.5850 -0.5455 0.6002
vn -0.5842 -0.5462 0.6002
vn 0.1413 0.1317 0.9812
vn -0.0570 0.5104 0.8581
vn 0.2180 0.5384 0.8140
vn 0.5524 0.1796 0.8140
vn 0.5051 -0.0928 0.8581
vn -0.5852 -0.5453 0.6002
vn -0.5860 -0.5444 0.6002
vn -0.4214 0.4280 -0.7995
vn -0.4242 0.4257 -0.7992
vn -0.4226 0.4271 -0.7994
vn 0.3963 -0.4516 -0.7994
vn 0.3949 -0.4531 -0.7992
vn 0.3973 -0.4504 -0.7995
vn -0.4226 0.4271 0.7994
vn -0.4242 0.4257 0.7992
vn -0.4214 0.4280 0.7995
vn 0.3973 -0.4504 0.7995
vn 0.3949 -0.4531 0.7992
vn 0.3963 -0.4516 0.7994
vn 0.1414 0.1317 -0.9812
vn 0.1414 0.1317 0.9812
vn 0.1413 0.1318 -0.9812
vn 0.1413 0.1318 0.9812
vn -0.3408 0.4339 -0.8340
vn -0.3283 0.4456 -0.8329
vn 0.4214 -0.3588 -0.8329
vn 0.4088 -0.3705 -0.8340
vn -0.3283 0.4456 0.8329
vn -0.3408 0.4339 0.8340
vn 0.4088 -0.3705 0.8340
vn 0.4214 -0.3588 0.8329
vn -0.5915 0.5384 -0.6002
vn -0.5907 0.5393 -0.6002
vn 0.5542 -0.1739 -0.8140
vn 0.5041 0.0979 -0.8581
vn 0.1427 -0.1302 -0.9812
vn -0.0518 -0.5109 -0.8581
vn 0.2235 -0.5362 -0.8140
vn 0.1426 -0.1303 -0.9812
vn -0.5898 0.5402 -0.6002
vn -0.5906 0.5393 -0.6002
vn -0.5907 0.5393 0.6002
vn -0.5915 0.5384 0.6002
vn 0.1427 -0.1302 0.9812
vn 0.5041 0.0979 0.8581
vn 0.5542 -0.1739 0.8140
vn 0.1426 -0.1303 0.9812
vn 0.2235 -0.5362 0.8140
vn -0.0518 -0.5109 0.8581
vn -0.5906 0.5394 0.6002
vn -0.5898 0.5402 0.6002
vn 0.3927 0.4545 -0.7995
vn 0.3902 0.4571 -0.7992
vn 0.3917 0.4556 -0.7994
vn -0.4182 -0.4314 -0.7994
vn -0.4199 -0.4301 -0.7992
vn -0.4170 -0.4323 -0.7995
vn 0.3917 0.4556 0.7994
vn 0.3902 0.4571 0.7992
vn 0.3927 0.4545 0.7995
vn -0.4170 -0.4323 0.7995
vn -0.4199 -0.4301 0.7992
vn -0.4182 -0.4314 0.7994
vn 0.1427 -0.1304 -0.9811
vn 0.1426 -0.1304 0.9812
vn 0.1428 -0.1302 0.9812
vn 0.4050 0.3746 -0.8340
vn 0.4177 0.3631 -0.8329
vn -0.3237 -0.4489 -0.8329
vn -0.3363 -0.4373 -0.8340
vn 0.4177 0.3631 0.8329
vn 0.4050 0.3746 0.8340
vn -0.3363 -0.4373 0.8340
vn -0.3237 -0.4489 0.8329
vn 0.5850 -0.5454 -0.6002
vn 0.5842 -0.5463 -0.6002
vn -0.5521 0.1805 -0.8140
vn -0.5053 -0.0919 -0.8581
vn -0.1411 0.1319 -0.9812
vn 0.0579 0.5103 -0.8581
vn -0.2170 0.5388 -0.8140
vn -0.1411 0.1320 -0.9812
vn 0.5833 -0.5472 -0.6002
vn 0.5841 -0.5464 -0.6002
vn 0.5842 -0.5463 0.6002
vn 0.5850 -0.5454 0.6002
vn -0.1411 0.1319 0.9812
vn -0.5053 -0.0919 0.8581
vn -0.5521 0.1805 0.8140
vn -0.1411 0.1320 0.9812
vn -0.2170 0.5388 0.8140
vn 0.0579 0.5103 0.8581
vn 0.5840 -0.5466 0.6002
vn 0.5833 -0.5472 0.6002
vn -0.3981 -0.4498 -0.7995
vn -0.3956 -0.4524 -0.7992
vn -0.3971 -0.4509 -0.7994
vn 0.4233 0.4263 -0.7994
vn 0.4250 0.4250 -0.7992
vn 0.4221 0.4273 -0.7995
vn -0.3971 -0.4509 0.7994
vn -0.3956 -0.4524 0.7992
vn -0.3981 -0.4498 0.7995
vn 0.4221 0.4273 0.7995
vn 0.4250 0.4250 0.7992
vn 0.4233 0.4263 0.7994
vn -0.1412 0.1319 0.9812
vn -0.4095 -0.3698 -0.8340
vn -0.4220 -0.3581 -0.8329
vn 0.3291 0.4450 -0.8329
vn 0.3415 0.4333 -0.8340
vn -0.4220 -0.3581 0.8329
vn -0.4095 -0.3698 0.8340
vn 0.3415 0.4333 0.8340
vn 0.3291 0.4450 0.8329
vt 0.283870 0.604670
vt 0.405000 0.813970
vt 0.223320 0.657000
vt 0.268750 0.719790
vt 0.177920 0.719800
vt 0.041680 0.813990
vt 0.162770 0.604670
vt 0.223320 0.592440
vt 0.223250 0.029060
vt 0.223360 0.970970
vt 0.223330 0.724400
s 1
usemtl mat1.060
f 8/1/1 3/2/1 1/3/2
f 3/2/3 12/4/4 1/3/5
f 13/5/6 5/6/7 1/3/5
f 5/6/8 9/7/8 1/3/9
f 6/3/10 3/2/11 8/1/11
f 6/3/12 12/4/13 3/2/14
f 6/3/12 5/6/15 13/5/16
f 6/3/17 9/7/18 5/6/18
f 7/8/19 2/9/20 8/1/21
f 9/7/22 2/9/23 7/8/24
f 8/1/25 2/9/26 10/8/27
f 10/8/28 2/9/29 9/7/30
f 1/3/5 7/8/19 8/1/21
f 8/1/25 10/8/27 6/3/31
f 9/7/22 7/8/24 1/3/32
f 6/3/12 10/8/28 9/7/30
f 12/4/4 4/10/33 11/11/34
f 11/11/35 4/10/36 13/5/6
f 14/11/37 4/10/38 12/4/13
f 13/5/16 4/10/39 14/11/40
f 12/4/4 11/11/34 1/3/5
f 6/3/12 14/11/37 12/4/13
f 1/3/5 11/11/35 13/5/6
f 13/5/16 14/11/40 6/3/12
usemtl mat1.061
f 22/1/41 17/2/41 15/3/42
f 17/2/43 26/4/44 15/3/45
f 27/5/46 19/6/47 15/3/45
f 19/6/48 23/7/48 15/3/49
f 20/3/50 17/2/51 22/1/51
f 20/3/52 26/4/53 17/2/54
f 20/3/52 19/6/55 27/5/56
f 20/3/57 23/7/58 19/6/58
f 21/8/59 16/9/60 22/1/61
f 23/7/62 16/9/63 21/8/64
f 22/1/65 16/9/66 24/8/67
f 24/8/68 16/9/69 23/7/70
f 15/3/71 21/8/59 22/1/61
f 22/1/65 24/8/67 20/3/72
f 23/7/62 21/8/64 15/3/45
f 20/3/52 24/8/68 23/7/70
f 26/4/44 18/10/73 25/11/74
f 25/11/75 18/10/76 27/5/46
f 28/11/77 18/10/78 26/4/53
f 27/5/56 18/10/79 28/11/80
f 26/4/44 25/11/74 15/3/45
f 20/3/52 28/11/77 26/4/53
f 15/3/45 25/11/75 27/5/46
f 27/5/56 28/11/80 20/3/52
usemtl mat1.062
f 36/1/81 31/2/81 29/3/82
f 31/2/83 40/4/84 29/3/85
f 41/5/86 33/6/87 29/3/85
f 33/6/88 37/7/88 29/3/89
f 34/3/90 31/2/91 36/1/91
f 34/3/92 40/4/93 31/2/94
f 34/3/92 33/6/95 41/5/96
f 34/3/97 37/7/98 33/6/98
f 35/8/99 30/9/100 36/1/101
f 37/7/102 30/9/103 35/8/104
f 36/1/105 30/9/106 38/8/107
f 38/8/108 30/9/109 37/7/110
f 29/3/85 35/8/99 36/1/101
f 36/1/105 38/8/107 34/3/92
f 37/7/102 35/8/104 29/3/111
f 34/3/112 38/8/108 37/7/110
f 40/4/84 32/10/113 39/11/114
f 39/11/115 32/10/116 41/5/86
f 42/11/117 32/10/118 40/4/93
f 41/5/96 32/10/119 42/11/120
f 40/4/84 39/11/114 29/3/85
f 34/3/92 42/11/117 40/4/93
f 29/3/85 39/11/115 41/5/86
f 41/5/96 42/11/120 34/3/92
usemtl mat1.063
f 50/1/121 45/2/121 43/3/122
f 45/2/123 54/4/124 43/3/125
f 55/5/126 47/6/127 43/3/125
f 47/6/128 51/7/128 43/3/129
f 48/3/130 45/2/131 50/1/131
f 48/3/132 54/4/133 45/2/134
f 48/3/132 47/6/135 55/5/136
f 48/3/137 51/7/138 47/6/138
f 49/8/139 44/9/140 50/1/141
f 51/7/142 44/9/143 49/8/144
f 50/1/145 44/9/146 52/8/147
f 52/8/148 44/9/149 51/7/150
f 43/3/125 49/8/139 50/1/141
f 50/1/145 52/8/147 48/3/151
f 51/7/142 49/8/144 43/3/152
f 48/3/153 52/8/148 51/7/150
f 54/4/124 46/10/154 53/11/155
f 53/11/156 46/10/157 55/5/126
f 56/11/158 46/10/159 54/4/133
f 55/5/136 46/10/160 56/11/161
f 54/4/124 53/11/155 43/3/125
f 48/3/132 56/11/158 54/4/133
f 43/3/125 53/11/156 55/5/126
f 55/5/136 56/11/161 48/3/132
usemtl mat1.064
f 64/1/162 59/2/162 57/3/163
f 59/2/164 68/4/165 57/3/166
f 69/5/167 61/6/168 57/3/166
f 61/6/169 65/7/169 57/3/170
f 62/3/171 59/2/172 64/1/172
f 62/3/173 68/4/174 59/2/175
f 62/3/173 61/6/176 69/5/177
f 62/3/178 65/7/179 61/6/179
f 63/8/180 58/9/181 64/1/182
f 65/7/183 58/9/184 63/8/185
f 64/1/186 58/9/187 66/8/188
f 66/8/189 58/9/190 65/7/191
f 57/3/192 63/8/180 64/1/182
f 64/1/186 66/8/188 62/3/193
f 65/7/183 63/8/185 57/3/166
f 62/3/194 66/8/189 65/7/191
f 68/4/165 60/10/195 67/11/196
f 67/11/197 60/10/198 69/5/167
f 70/11/199 60/10/200 68/4/174
f 69/5/177 60/10/201 70/11/202
f 68/4/165 67/11/196 57/3/166
f 62/3/173 70/11/199 68/4/174
f 57/3/166 67/11/197 69/5/167
f 69/5/177 70/11/202 62/3/173
usemtl mat1.065
f 78/1/203 73/2/203 71/3/204
f 73/2/205 82/4/206 71/3/207
f 83/5/208 75/6/209 71/3/207
f 75/6/210 79/7/210 71/3/211
f 76/3/212 73/2/213 78/1/213
f 76/3/214 82/4/215 73/2/216
f 76/3/214 75/6/217 83/5/218
f 76/3/219 79/7/220 75/6/220
f 77/8/221 72/9/222 78/1/223
f 79/7/224 72/9/225 77/8/226
f 78/1/227 72/9/228 80/8/229
f 80/8/230 72/9/231 79/7/232
f 71/3/233 77/8/221 78/1/223
f 78/1/227 80/8/229 76/3/234
f 79/7/224 77/8/226 71/3/235
f 76/3/236 80/8/230 79/7/232
f 82/4/206 74/10/237 81/11/238
f 81/11/239 74/10/240 83/5/208
f 84/11/241 74/10/242 82/4/215
f 83/5/218 74/10/243 84/11/244
f 82/4/206 81/11/238 71/3/207
f 76/3/214 84/11/241 82/4/215
f 71/3/207 81/11/239 83/5/208
f 83/5/218 84/11/244 76/3/214
usemtl mat1.066
f 92/1/245 87/2/245 85/3/246
f 87/2/247 96/4/248 85/3/249
f 97/5/250 89/6/251 85/3/252
f 89/6/253 93/7/253 85/3/254
f 90/3/255 87/2/256 92/1/256
f 90/3/257 96/4/258 87/2/259
f 90/3/260 89/6/261 97/5/262
f 90/3/263 93/7/264 89/6/264
f 91/8/265 86/9/266 92/1/267
f 93/7/268 86/9/269 91/8/270
f 92/1/271 86/9/272 94/8/273
f 94/8/274 86/9/275 93/7/276
f 85/3/277 91/8/265 92/1/267
f 92/1/271 94/8/273 90/3/278
f 93/7/268 91/8/270 85/3/249
f 90/3/279 94/8/274 93/7/276
f 96/4/248 88/10/280 95/11/281
f 95/11/282 88/10/283 97/5/250
f 98/11/284 88/10/285 96/4/258
f 97/5/262 88/10/286 98/11/287
f 96/4/248 95/11/281 85/3/249
f 90/3/257 98/11/284 96/4/258
f 85/3/252 95/11/282 97/5/250
f 97/5/262 98/11/287 90/3/260
usemtl mat1.067
f 106/1/288 101/2/288 99/3/289
f 101/2/290 110/4/291 99/3/292
f 111/5/293 103/6/294 99/3/295
f 103/6/296 107/7/296 99/3/297
f 104/3/298 101/2/299 106/1/299
f 104/3/300 110/4/301 101/2/302
f 104/3/303 103/6/304 111/5/305
f 104/3/306 107/7/307 103/6/307
f 105/8/308 100/9/309 106/1/310
f 107/7/311 100/9/312 105/8/313
f 106/1/314 100/9/315 108/8/316
f 108/8/317 100/9/318 107/7/319
f 99/3/295 105/8/308 106/1/310
f 106/1/314 108/8/316 104/3/303
f 107/7/311 105/8/313 99/3/292
f 104/3/320 108/8/317 107/7/319
f 110/4/291 102/10/321 109/11/322
f 109/11/323 102/10/324 111/5/293
f 112/11/325 102/10/326 110/4/301
f 111/5/305 102/10/327 112/11/328
f 110/4/291 109/11/322 99/3/292
f 104/3/300 112/11/325 110/4/301
f 99/3/295 109/11/323 111/5/293
f 111/5/305 112/11/328 104/3/303
