# Blender 4.1.0
# www.blender.org
mtllib big_drive.mtl
o base
v 0.000000 0.000022 226.755951
v 0.000000 12.511212 297.617188
v 0.000000 0.000037 368.478394
v 0.000000 -12.511151 297.617188
v -248.202637 0.000022 218.593292
v -312.207794 10.772570 274.962280
v -376.212189 0.000033 331.331543
v -312.207794 -10.772514 274.962280
v -507.180511 0.000018 185.019241
v -576.884094 6.349237 210.447098
v -646.587708 0.000024 235.874939
v -576.884094 -6.349193 210.447098
v -753.735168 0.000011 113.893280
v -684.254578 0.000009 91.106575
v -727.804749 0.000009 98.689575
v 0.000000 0.000022 226.755951
v 0.000000 12.511212 297.617188
v 0.000000 0.000037 368.478394
v 0.000000 -12.511151 297.617188
v 248.202637 0.000022 218.593292
v 312.207794 10.772570 274.962280
v 376.212189 0.000033 331.331543
v 312.207794 -10.772514 274.962280
v 507.180511 0.000018 185.019241
v 576.884094 6.349237 210.447098
v 646.587708 0.000024 235.874939
v 576.884094 -6.349193 210.447098
v 753.735168 0.000011 113.893280
v 684.254578 0.000009 91.106575
v 727.804749 0.000009 98.689575
v 248.202637 0.000022 218.593292
v 312.207794 10.772570 274.962280
v 376.212189 0.000033 331.331543
v 312.207794 -10.772514 274.962280
v 507.180511 0.000018 185.019241
v 576.884094 6.349237 210.447098
v 646.587708 0.000024 235.874939
v 576.884094 -6.349193 210.447098
v 753.735168 0.000011 113.893280
v 684.254578 0.000009 91.106575
v 727.804749 0.000009 98.689575
v -248.202637 0.000022 218.593292
v -312.207794 10.772570 274.962280
v -376.212189 0.000033 331.331543
v -312.207794 -10.772514 274.962280
v -507.180511 0.000018 185.019241
v -576.884094 6.349237 210.447098
v -646.587708 0.000024 235.874939
v -576.884094 -6.349193 210.447098
v -753.735168 0.000011 113.893280
v -684.254578 0.000009 91.106575
v -727.804749 0.000009 98.689575
vn 0.0115 0.9849 -0.1725
vn -0.0095 0.9998 -0.0161
vn -0.0000 1.0000 -0.0030
vn -0.0000 0.9848 -0.1739
vn -0.0000 1.0000 -0.0029
vn -0.0275 0.9869 0.1591
vn -0.0000 0.9848 0.1739
vn -0.0095 0.9998 -0.0159
vn -0.0000 1.0000 -0.0028
vn -0.0275 -0.9869 0.1591
vn -0.0095 -0.9998 -0.0159
vn -0.0000 -1.0000 -0.0028
vn -0.0000 -0.9848 0.1739
vn -0.0000 -1.0000 -0.0029
vn 0.0116 -0.9850 -0.1724
vn -0.0000 -0.9848 -0.1739
vn -0.0095 -0.9998 -0.0161
vn 0.0115 -0.9849 -0.1725
vn -0.0000 -1.0000 -0.0030
vn 0.0234 0.9932 -0.1140
vn -0.0121 0.9995 -0.0293
vn -0.0095 0.9998 -0.0160
vn 0.0116 0.9849 -0.1725
vn -0.0541 0.9929 0.1057
vn -0.0541 -0.9929 0.1057
vn -0.0121 -0.9995 -0.0293
vn -0.0095 -0.9998 -0.0160
vn 0.0234 -0.9932 -0.1140
vn 0.0116 -0.9849 -0.1725
vn 0.0091 -0.9987 -0.0497
vn -0.0000 -1.0000 -0.0000
vn 0.0234 -0.9932 -0.1139
vn 0.0090 -0.9987 -0.0497
vn -0.0432 -0.9990 0.0133
vn -0.0541 -0.9929 0.1058
vn 0.0091 0.9987 -0.0497
vn -0.0000 1.0000 -0.0000
vn 0.0090 0.9987 -0.0497
vn 0.0234 0.9932 -0.1139
vn -0.0432 0.9990 0.0133
vn -0.0541 0.9929 0.1058
vn -0.0432 0.9990 0.0134
vn 0.0095 0.9998 -0.0161
vn -0.0115 0.9849 -0.1725
vn -0.0116 0.9850 -0.1724
vn 0.0275 0.9869 0.1591
vn 0.0095 0.9998 -0.0159
vn 0.0095 -0.9998 -0.0159
vn 0.0275 -0.9869 0.1591
vn -0.0115 -0.9849 -0.1725
vn 0.0095 -0.9998 -0.0161
vn 0.0121 0.9995 -0.0293
vn -0.0234 0.9932 -0.1140
vn -0.0116 0.9849 -0.1725
vn 0.0095 0.9998 -0.0160
vn 0.0541 0.9929 0.1057
vn 0.0095 -0.9998 -0.0160
vn 0.0121 -0.9995 -0.0293
vn 0.0541 -0.9929 0.1057
vn -0.0234 -0.9932 -0.1140
vn -0.0116 -0.9849 -0.1725
vn -0.0234 -0.9932 -0.1139
vn -0.0090 -0.9987 -0.0497
vn -0.0091 -0.9987 -0.0497
vn 0.0432 -0.9990 0.0133
vn 0.0541 -0.9929 0.1058
vn 0.0432 -0.9990 0.0134
vn -0.0090 0.9987 -0.0497
vn -0.0234 0.9932 -0.1139
vn -0.0091 0.9987 -0.0497
vn 0.0432 0.9990 0.0133
vn 0.0541 0.9929 0.1058
vt 0.485330 0.306890
vt 0.482820 0.453080
vt 0.675020 0.454150
vt 0.675020 0.304420
vt 0.479010 0.599820
vt 0.675020 0.603870
vt 0.298710 0.341250
vt 0.290620 0.452000
vt 0.276490 0.564730
vt 0.086310 0.416400
vt 0.110400 0.326640
vt 0.069290 0.507390
s 0
f 5/1/1 6/2/2 2/3/3
f 1/4/4 5/1/1 2/3/5
f 7/5/6 3/6/7 2/3/5
f 6/2/8 7/5/6 2/3/9
f 7/5/10 8/2/11 4/3/12
f 3/6/13 7/5/10 4/3/14
f 5/1/15 1/4/16 4/3/14
f 8/2/17 5/1/18 4/3/19
f 9/7/20 10/8/21 6/2/22
f 5/1/23 9/7/20 6/2/22
f 11/9/24 7/5/6 6/2/22
f 10/8/21 11/9/24 6/2/22
f 11/9/25 12/8/26 8/2/11
f 7/5/10 11/9/25 8/2/27
f 9/7/28 5/1/29 8/2/27
f 12/8/26 9/7/28 8/2/17
f 9/7/28 12/8/26 15/10/30
f 14/11/31 9/7/32 15/10/33
f 13/12/34 15/10/33 12/8/26
f 11/9/35 13/12/34 12/8/26
f 15/10/36 10/8/21 9/7/20
f 14/11/37 15/10/38 9/7/39
f 10/8/21 15/10/38 13/12/40
f 11/9/41 10/8/21 13/12/42
f 17/3/3 21/2/43 20/1/44
f 16/4/4 17/3/5 20/1/45
f 22/5/46 21/2/47 17/3/9
f 18/6/7 22/5/46 17/3/5
f 19/3/12 23/2/48 22/5/49
f 18/6/13 19/3/14 22/5/49
f 20/1/50 23/2/51 19/3/19
f 16/4/16 20/1/50 19/3/14
f 21/2/43 25/8/52 24/7/53
f 20/1/54 21/2/55 24/7/53
f 26/9/56 25/8/52 21/2/47
f 22/5/46 26/9/56 21/2/55
f 23/2/57 27/8/58 26/9/59
f 22/5/49 23/2/57 26/9/59
f 24/7/60 27/8/58 23/2/51
f 20/1/61 24/7/60 23/2/57
f 24/7/62 29/11/31 30/10/63
f 27/8/58 24/7/60 30/10/64
f 27/8/58 30/10/63 28/12/65
f 26/9/66 27/8/58 28/12/67
f 30/10/68 29/11/37 24/7/69
f 25/8/52 30/10/70 24/7/53
f 28/12/71 30/10/68 25/8/52
f 26/9/72 28/12/71 25/8/52
f 2/3/3 32/2/43 31/1/44
f 2/3/5 31/1/45 1/4/4
f 2/3/5 3/6/7 33/5/46
f 2/3/9 33/5/46 32/2/47
f 4/3/12 34/2/48 33/5/49
f 4/3/14 33/5/49 3/6/13
f 4/3/14 1/4/16 31/1/50
f 4/3/19 31/1/50 34/2/51
f 32/2/43 36/8/52 35/7/53
f 32/2/55 35/7/53 31/1/54
f 32/2/55 33/5/46 37/9/56
f 32/2/47 37/9/56 36/8/52
f 34/2/57 38/8/58 37/9/59
f 34/2/57 37/9/59 33/5/49
f 34/2/57 31/1/61 35/7/60
f 34/2/51 35/7/60 38/8/58
f 41/10/64 38/8/58 35/7/60
f 41/10/63 35/7/62 40/11/31
f 38/8/58 41/10/63 39/12/65
f 38/8/58 39/12/67 37/9/66
f 35/7/53 36/8/52 41/10/70
f 35/7/69 41/10/68 40/11/37
f 39/12/71 41/10/68 36/8/52
f 39/12/71 36/8/52 37/9/72
f 42/1/1 43/2/2 17/3/3
f 42/1/1 17/3/5 16/4/4
f 17/3/9 43/2/8 44/5/6
f 17/3/5 44/5/6 18/6/7
f 44/5/10 45/2/11 19/3/12
f 44/5/10 19/3/14 18/6/13
f 19/3/19 45/2/17 42/1/18
f 19/3/14 42/1/15 16/4/16
f 46/7/20 47/8/21 43/2/22
f 46/7/20 43/2/22 42/1/23
f 43/2/22 47/8/21 48/9/24
f 43/2/22 48/9/24 44/5/6
f 48/9/25 49/8/26 45/2/11
f 48/9/25 45/2/27 44/5/10
f 45/2/17 49/8/26 46/7/28
f 45/2/27 46/7/28 42/1/29
f 52/10/33 51/11/31 46/7/32
f 52/10/30 46/7/28 49/8/26
f 50/12/34 52/10/33 49/8/26
f 50/12/34 49/8/26 48/9/35
f 46/7/39 51/11/37 52/10/38
f 46/7/20 52/10/36 47/8/21
f 47/8/21 52/10/38 50/12/40
f 47/8/21 50/12/42 48/9/41
