# Blender 4.3.0
# www.blender.org
mtllib huanying.mtl
o huanying
v 97.374901 0.000003 48.400478
v 97.374901 7.403205 73.400482
v 97.374901 0.000006 98.400482
v 97.374901 -7.403195 73.400482
v 65.430702 0.000002 45.520679
v 57.193100 6.374404 65.407776
v 48.955601 0.000005 85.294983
v 57.193100 -6.374397 65.407776
v 32.099701 0.000002 33.675678
v 23.128700 3.757003 42.646679
v 14.157700 0.000003 51.617680
v 23.128700 -3.756997 42.646679
v 0.367599 -0.000000 8.582279
v 9.309898 -0.000001 0.543079
v 3.704903 0.000000 3.218380
v 97.374901 0.000003 48.400478
v 97.374901 7.403205 73.400482
v 97.374901 0.000006 98.400482
v 97.374901 -7.403195 73.400482
v 129.319107 0.000002 45.520679
v 137.556702 6.374404 65.407776
v 145.794205 0.000005 85.294983
v 137.556702 -6.374397 65.407776
v 162.650101 0.000002 33.675678
v 171.621094 3.757003 42.646679
v 180.592102 0.000003 51.617680
v 171.621094 -3.756997 42.646679
v 194.382202 -0.000000 8.582279
v 185.439911 -0.000001 0.543079
v 191.044891 0.000000 3.218380
v 129.319107 0.000002 45.520679
v 137.556702 6.374404 65.407776
v 145.794205 0.000005 85.294983
v 137.556702 -6.374397 65.407776
v 162.650101 0.000002 33.675678
v 171.621094 3.757003 42.646679
v 180.592102 0.000003 51.617680
v 171.621094 -3.756997 42.646679
v 194.382202 -0.000000 8.582279
v 185.439911 -0.000001 0.543079
v 191.044891 0.000000 3.218380
v 65.430702 0.000002 45.520679
v 57.193100 6.374404 65.407776
v 48.955601 0.000005 85.294983
v 57.193100 -6.374397 65.407776
v 32.099701 0.000002 33.675678
v 23.128700 3.757003 42.646679
v 14.157700 0.000003 51.617680
v 23.128700 -3.756997 42.646679
v 0.367599 -0.000000 8.582279
v 9.309898 -0.000001 0.543079
v 3.704903 0.000000 3.218380
v -98.290443 -0.000010 -48.611637
v -98.290443 -7.403214 -73.611633
v -98.290443 -0.000017 -98.611633
v -98.290443 7.403186 -73.611633
v -130.234650 -0.000009 -45.731838
v -138.472229 -6.374413 -65.618942
v -146.709747 -0.000015 -85.506134
v -138.472229 6.374388 -65.618942
v -163.565643 -0.000008 -33.886837
v -172.536652 -3.757009 -42.857838
v -181.507629 -0.000011 -51.828838
v -172.536652 3.756991 -42.857838
v -195.297729 -0.000004 -8.793438
v -186.355438 -0.000002 -0.754238
v -191.960419 -0.000003 -3.429539
v -98.290443 -0.000010 -48.611637
v -98.290443 -7.403214 -73.611633
v -98.290443 -0.000017 -98.611633
v -98.290443 7.403186 -73.611633
v -66.346245 -0.000009 -45.731838
v -58.108650 -6.374413 -65.618942
v -49.871147 -0.000015 -85.506134
v -58.108650 6.374388 -65.618942
v -33.015236 -0.000008 -33.886837
v -24.044243 -3.757009 -42.857838
v -15.073242 -0.000011 -51.828838
v -24.044243 3.756991 -42.857838
v -1.283142 -0.000004 -8.793438
v -10.225441 -0.000002 -0.754238
v -4.620445 -0.000003 -3.429539
v -66.346245 -0.000009 -45.731838
v -58.108650 -6.374413 -65.618942
v -49.871147 -0.000015 -85.506134
v -58.108650 6.374388 -65.618942
v -33.015236 -0.000008 -33.886837
v -24.044243 -3.757009 -42.857838
v -15.073242 -0.000011 -51.828838
v -24.044243 3.756991 -42.857838
v -1.283142 -0.000004 -8.793438
v -10.225441 -0.000002 -0.754238
v -4.620445 -0.000003 -3.429539
v -130.234650 -0.000009 -45.731838
v -138.472229 -6.374413 -65.618942
v -146.709747 -0.000015 -85.506134
v -138.472229 6.374388 -65.618942
v -163.565643 -0.000008 -33.886837
v -172.536652 -3.757009 -42.857838
v -181.507629 -0.000011 -51.828838
v -172.536652 3.756991 -42.857838
v -195.297729 -0.000004 -8.793438
v -186.355438 -0.000002 -0.754238
v -191.960419 -0.000003 -3.429539
v 48.207481 -0.000013 -97.804840
v 73.207481 -7.403215 -97.804840
v 98.207481 -0.000017 -97.804840
v 73.207481 7.403185 -97.804840
v 45.327682 -0.000016 -129.749039
v 65.214783 -6.374418 -137.986633
v 85.101982 -0.000020 -146.224136
v 65.214783 6.374382 -137.986633
v 33.482681 -0.000017 -163.080048
v 42.453682 -3.757019 -172.051041
v 51.424683 -0.000021 -181.022034
v 42.453690 3.756981 -172.051041
v 8.389290 -0.000018 -194.812134
v 0.350090 -0.000016 -185.869843
v 3.025383 -0.000017 -191.474838
v 48.207481 -0.000013 -97.804840
v 73.207481 -7.403215 -97.804840
v 98.207481 -0.000017 -97.804840
v 73.207481 7.403185 -97.804840
v 45.327682 -0.000011 -65.860641
v 65.214783 -6.374412 -57.623039
v 85.101982 -0.000013 -49.385540
v 65.214783 6.374389 -57.623039
v 33.482681 -0.000007 -32.529644
v 42.453674 -3.757008 -23.558643
v 51.424683 -0.000008 -14.587643
v 42.453682 3.756992 -23.558643
v 8.389275 -0.000003 -0.797543
v 0.350075 -0.000003 -9.739841
v 3.025383 -0.000003 -4.134846
v 45.327682 -0.000011 -65.860641
v 65.214783 -6.374412 -57.623039
v 85.101982 -0.000013 -49.385540
v 65.214783 6.374389 -57.623039
v 33.482681 -0.000007 -32.529644
v 42.453674 -3.757008 -23.558643
v 51.424683 -0.000008 -14.587643
v 42.453682 3.756992 -23.558643
v 8.389275 -0.000003 -0.797543
v 0.350075 -0.000003 -9.739841
v 3.025383 -0.000003 -4.134846
v 45.327682 -0.000016 -129.749039
v 65.214783 -6.374418 -137.986633
v 85.101982 -0.000020 -146.224136
v 65.214783 6.374382 -137.986633
v 33.482681 -0.000017 -163.080048
v 42.453682 -3.757019 -172.051041
v 51.424683 -0.000021 -181.022034
v 42.453690 3.756981 -172.051041
v 8.389290 -0.000018 -194.812134
v 0.350090 -0.000016 -185.869843
v 3.025383 -0.000017 -191.474838
v -48.704140 0.000006 98.168259
v -73.704140 7.403207 98.168259
v -98.704140 0.000006 98.168259
v -73.704140 -7.403193 98.168259
v -45.824348 0.000004 66.224045
v -65.711449 6.374403 57.986446
v -85.598640 0.000003 49.748951
v -65.711449 -6.374399 57.986446
v -33.979347 0.000001 32.893055
v -42.950356 3.757002 23.922054
v -51.921349 0.000000 14.951054
v -42.950356 -3.756998 23.922054
v -8.885948 -0.000001 1.160954
v -0.846748 -0.000000 10.103252
v -3.522041 0.000000 4.498257
v -48.704140 0.000006 98.168259
v -73.704140 7.403207 98.168259
v -98.704140 0.000006 98.168259
v -73.704140 -7.403193 98.168259
v -45.824348 0.000009 130.112457
v -65.711449 6.374410 138.350052
v -85.598640 0.000010 146.587555
v -65.711449 -6.374392 138.350052
v -33.979347 0.000011 163.443451
v -42.950356 3.757013 172.414459
v -51.921349 0.000013 181.385468
v -42.950356 -3.756987 172.414459
v -8.885948 0.000014 195.175568
v -0.846748 0.000013 186.233261
v -3.522057 0.000014 191.838257
v -45.824348 0.000009 130.112457
v -65.711449 6.374410 138.350052
v -85.598640 0.000010 146.587555
v -65.711449 -6.374392 138.350052
v -33.979347 0.000011 163.443451
v -42.950356 3.757013 172.414459
v -51.921349 0.000013 181.385468
v -42.950356 -3.756987 172.414459
v -8.885948 0.000014 195.175568
v -0.846748 0.000013 186.233261
v -3.522057 0.000014 191.838257
v -45.824348 0.000004 66.224045
v -65.711449 6.374403 57.986446
v -85.598640 0.000003 49.748951
v -65.711449 -6.374399 57.986446
v -33.979347 0.000001 32.893055
v -42.950356 3.757002 23.922054
v -51.921349 0.000000 14.951054
v -42.950356 -3.756998 23.922054
v -8.885948 -0.000001 1.160954
v -0.846748 -0.000000 10.103252
v -3.522041 0.000000 4.498257
vn 0.0515 0.9582 -0.2815
vn -0.0436 0.9987 -0.0268
vn -0.0000 1.0000 -0.0049
vn -0.0000 0.9588 -0.2839
vn -0.1225 0.9580 0.2591
vn -0.0000 0.9588 0.2839
vn -0.1225 -0.9580 0.2591
vn -0.0436 -0.9987 -0.0268
vn -0.0000 -1.0000 -0.0049
vn -0.0000 -0.9588 0.2839
vn 0.0515 -0.9582 -0.2815
vn -0.0000 -0.9588 -0.2839
vn 0.1057 0.9765 -0.1879
vn -0.0554 0.9973 -0.0490
vn -0.2395 0.9558 0.1707
vn -0.2395 -0.9558 0.1707
vn -0.0554 -0.9973 -0.0490
vn 0.1057 -0.9765 -0.1879
vn 0.0414 -0.9957 -0.0831
vn -0.0000 -1.0000 -0.0000
vn -0.1947 -0.9806 0.0219
vn 0.0414 0.9957 -0.0831
vn -0.1947 0.9806 0.0220
vn 0.0436 0.9987 -0.0268
vn -0.0515 0.9582 -0.2815
vn 0.1225 0.9580 0.2591
vn 0.0436 -0.9987 -0.0268
vn 0.1225 -0.9580 0.2591
vn -0.0515 -0.9582 -0.2815
vn 0.0554 0.9973 -0.0490
vn -0.1057 0.9765 -0.1879
vn 0.2395 0.9558 0.1707
vn 0.0554 -0.9973 -0.0490
vn 0.2395 -0.9558 0.1707
vn -0.1057 -0.9765 -0.1879
vn -0.0414 -0.9957 -0.0831
vn 0.1947 -0.9806 0.0220
vn -0.0414 0.9957 -0.0831
vn -0.0000 1.0000 -0.0000
vn 0.1947 0.9806 0.0220
vn 0.0515 -0.9582 0.2815
vn -0.0436 -0.9987 0.0268
vn -0.0000 -1.0000 0.0049
vn -0.1225 -0.9580 -0.2591
vn -0.1225 0.9580 -0.2591
vn -0.0436 0.9987 0.0268
vn -0.0000 1.0000 0.0049
vn 0.0515 0.9582 0.2815
vn 0.1057 -0.9765 0.1879
vn -0.0554 -0.9973 0.0490
vn -0.2395 -0.9558 -0.1707
vn -0.2395 0.9558 -0.1707
vn -0.0554 0.9973 0.0490
vn 0.1057 0.9765 0.1879
vn 0.0414 0.9957 0.0831
vn -0.1947 0.9806 -0.0219
vn 0.0414 -0.9957 0.0831
vn -0.1947 -0.9806 -0.0220
vn 0.0436 -0.9987 0.0268
vn -0.0515 -0.9582 0.2815
vn 0.1225 -0.9580 -0.2591
vn 0.0436 0.9987 0.0268
vn 0.1225 0.9580 -0.2591
vn -0.0515 0.9582 0.2815
vn 0.0554 -0.9973 0.0490
vn -0.1057 -0.9765 0.1879
vn 0.2395 -0.9558 -0.1707
vn 0.0554 0.9973 0.0490
vn 0.2395 0.9558 -0.1707
vn -0.1057 0.9765 0.1879
vn -0.0414 0.9957 0.0831
vn 0.1947 0.9806 -0.0220
vn -0.0414 -0.9957 0.0831
vn 0.1947 -0.9806 -0.0220
vn -0.2815 -0.9582 0.0515
vn -0.0268 -0.9987 -0.0436
vn -0.0049 -1.0000 -0.0000
vn -0.2839 -0.9588 -0.0000
vn 0.2591 -0.9580 -0.1225
vn 0.2839 -0.9588 -0.0000
vn 0.2591 0.9580 -0.1225
vn -0.0268 0.9987 -0.0436
vn -0.0049 1.0000 -0.0000
vn 0.2839 0.9588 -0.0000
vn -0.2815 0.9582 0.0515
vn -0.2839 0.9588 -0.0000
vn -0.1879 -0.9765 0.1057
vn -0.0490 -0.9973 -0.0554
vn 0.1707 -0.9558 -0.2395
vn 0.1707 0.9558 -0.2395
vn -0.0490 0.9973 -0.0554
vn -0.1879 0.9765 0.1057
vn -0.0831 0.9957 0.0414
vn 0.0219 0.9806 -0.1947
vn -0.0831 -0.9957 0.0414
vn 0.0220 -0.9806 -0.1947
vn -0.0268 -0.9987 0.0436
vn -0.2815 -0.9582 -0.0515
vn 0.2591 -0.9580 0.1225
vn -0.0268 0.9987 0.0436
vn 0.2591 0.9580 0.1225
vn -0.2815 0.9582 -0.0515
vn -0.0490 -0.9973 0.0554
vn -0.1879 -0.9765 -0.1057
vn 0.1707 -0.9558 0.2395
vn -0.0490 0.9973 0.0554
vn 0.1707 0.9558 0.2395
vn -0.1879 0.9765 -0.1057
vn -0.0831 0.9957 -0.0414
vn 0.0220 0.9806 0.1947
vn -0.0831 -0.9957 -0.0414
vn 0.0220 -0.9806 0.1947
vn 0.2815 0.9582 0.0515
vn 0.0268 0.9987 -0.0436
vn 0.0049 1.0000 -0.0000
vn -0.2591 0.9580 -0.1225
vn -0.2591 -0.9580 -0.1225
vn 0.0268 -0.9987 -0.0436
vn 0.0049 -1.0000 -0.0000
vn 0.2815 -0.9582 0.0515
vn 0.1879 0.9765 0.1057
vn 0.0490 0.9973 -0.0554
vn -0.1707 0.9558 -0.2395
vn -0.1707 -0.9558 -0.2395
vn 0.0490 -0.9973 -0.0554
vn 0.1879 -0.9765 0.1057
vn 0.0831 -0.9957 0.0414
vn -0.0219 -0.9806 -0.1947
vn 0.0831 0.9957 0.0414
vn -0.0220 0.9806 -0.1947
vn 0.0268 0.9987 0.0436
vn 0.2815 0.9582 -0.0515
vn -0.2591 0.9580 0.1225
vn 0.0268 -0.9987 0.0436
vn -0.2591 -0.9580 0.1225
vn 0.2815 -0.9582 -0.0515
vn 0.0490 0.9973 0.0554
vn 0.1879 0.9765 -0.1057
vn -0.1707 0.9558 0.2395
vn 0.0490 -0.9973 0.0554
vn -0.1707 -0.9558 0.2395
vn 0.1879 -0.9765 -0.1057
vn 0.0831 -0.9957 -0.0414
vn -0.0220 -0.9806 0.1947
vn 0.0831 0.9957 -0.0414
vn -0.0220 0.9806 0.1947
vt 0.485330 0.306890
vt 0.482820 0.453080
vt 0.675020 0.454150
vt 0.675020 0.304420
vt 0.479010 0.599820
vt 0.675020 0.603870
vt 0.298710 0.341250
vt 0.290620 0.452000
vt 0.276490 0.564730
vt 0.086310 0.416400
vt 0.110400 0.326640
vt 0.069290 0.507390
s 1
f 5/1/1 6/2/2 2/3/3
f 1/4/4 5/1/1 2/3/3
f 7/5/5 3/6/6 2/3/3
f 6/2/2 7/5/5 2/3/3
f 7/5/7 8/2/8 4/3/9
f 3/6/10 7/5/7 4/3/9
f 5/1/11 1/4/12 4/3/9
f 8/2/8 5/1/11 4/3/9
f 9/7/13 10/8/14 6/2/2
f 5/1/1 9/7/13 6/2/2
f 11/9/15 7/5/5 6/2/2
f 10/8/14 11/9/15 6/2/2
f 11/9/16 12/8/17 8/2/8
f 7/5/7 11/9/16 8/2/8
f 9/7/18 5/1/11 8/2/8
f 12/8/17 9/7/18 8/2/8
f 9/7/18 12/8/17 15/10/19
f 14/11/20 9/7/18 15/10/19
f 13/12/21 15/10/19 12/8/17
f 11/9/16 13/12/21 12/8/17
f 15/10/22 10/8/14 9/7/13
f 10/8/14 15/10/22 13/12/23
f 11/9/15 10/8/14 13/12/23
f 17/3/3 21/2/24 20/1/25
f 16/4/4 17/3/3 20/1/25
f 22/5/26 21/2/24 17/3/3
f 18/6/6 22/5/26 17/3/3
f 19/3/9 23/2/27 22/5/28
f 18/6/10 19/3/9 22/5/28
f 20/1/29 23/2/27 19/3/9
f 16/4/12 20/1/29 19/3/9
f 21/2/24 25/8/30 24/7/31
f 20/1/25 21/2/24 24/7/31
f 26/9/32 25/8/30 21/2/24
f 22/5/26 26/9/32 21/2/24
f 23/2/27 27/8/33 26/9/34
f 22/5/28 23/2/27 26/9/34
f 24/7/35 27/8/33 23/2/27
f 20/1/29 24/7/35 23/2/27
f 27/8/33 24/7/35 30/10/36
f 27/8/33 30/10/36 28/12/37
f 26/9/34 27/8/33 28/12/37
f 30/10/38 29/11/39 24/7/31
f 25/8/30 30/10/38 24/7/31
f 28/12/40 30/10/38 25/8/30
f 26/9/32 28/12/40 25/8/30
f 2/3/3 32/2/24 31/1/25
f 2/3/3 31/1/25 1/4/4
f 2/3/3 3/6/6 33/5/26
f 2/3/3 33/5/26 32/2/24
f 4/3/9 34/2/27 33/5/28
f 4/3/9 33/5/28 3/6/10
f 4/3/9 1/4/12 31/1/29
f 4/3/9 31/1/29 34/2/27
f 32/2/24 36/8/30 35/7/31
f 32/2/24 35/7/31 31/1/25
f 32/2/24 33/5/26 37/9/32
f 32/2/24 37/9/32 36/8/30
f 34/2/27 38/8/33 37/9/34
f 34/2/27 37/9/34 33/5/28
f 34/2/27 31/1/29 35/7/35
f 34/2/27 35/7/35 38/8/33
f 41/10/36 38/8/33 35/7/35
f 41/10/36 35/7/35 40/11/20
f 38/8/33 41/10/36 39/12/37
f 38/8/33 39/12/37 37/9/34
f 35/7/31 36/8/30 41/10/38
f 39/12/40 41/10/38 36/8/30
f 39/12/40 36/8/30 37/9/32
f 42/1/1 43/2/2 17/3/3
f 42/1/1 17/3/3 16/4/4
f 17/3/3 43/2/2 44/5/5
f 17/3/3 44/5/5 18/6/6
f 44/5/7 45/2/8 19/3/9
f 44/5/7 19/3/9 18/6/10
f 19/3/9 45/2/8 42/1/11
f 19/3/9 42/1/11 16/4/12
f 46/7/13 47/8/14 43/2/2
f 46/7/13 43/2/2 42/1/1
f 43/2/2 47/8/14 48/9/15
f 43/2/2 48/9/15 44/5/5
f 48/9/16 49/8/17 45/2/8
f 48/9/16 45/2/8 44/5/7
f 45/2/8 49/8/17 46/7/18
f 45/2/8 46/7/18 42/1/11
f 52/10/19 51/11/20 46/7/18
f 52/10/19 46/7/18 49/8/17
f 50/12/21 52/10/19 49/8/17
f 50/12/21 49/8/17 48/9/16
f 46/7/13 52/10/22 47/8/14
f 47/8/14 52/10/22 50/12/23
f 47/8/14 50/12/23 48/9/15
f 57/1/41 58/2/42 54/3/43
f 53/4/10 57/1/41 54/3/43
f 59/5/44 55/6/12 54/3/43
f 58/2/42 59/5/44 54/3/43
f 59/5/45 60/2/46 56/3/47
f 55/6/4 59/5/45 56/3/47
f 57/1/48 53/4/6 56/3/47
f 60/2/46 57/1/48 56/3/47
f 61/7/49 62/8/50 58/2/42
f 57/1/41 61/7/49 58/2/42
f 63/9/51 59/5/44 58/2/42
f 62/8/50 63/9/51 58/2/42
f 63/9/52 64/8/53 60/2/46
f 59/5/45 63/9/52 60/2/46
f 61/7/54 57/1/48 60/2/46
f 64/8/53 61/7/54 60/2/46
f 61/7/54 64/8/53 67/10/55
f 66/11/39 61/7/54 67/10/55
f 65/12/56 67/10/55 64/8/53
f 63/9/52 65/12/56 64/8/53
f 67/10/57 62/8/50 61/7/49
f 62/8/50 67/10/57 65/12/58
f 63/9/51 62/8/50 65/12/58
f 69/3/43 73/2/59 72/1/60
f 68/4/10 69/3/43 72/1/60
f 74/5/61 73/2/59 69/3/43
f 70/6/12 74/5/61 69/3/43
f 71/3/47 75/2/62 74/5/63
f 70/6/4 71/3/47 74/5/63
f 72/1/64 75/2/62 71/3/47
f 68/4/6 72/1/64 71/3/47
f 73/2/59 77/8/65 76/7/66
f 72/1/60 73/2/59 76/7/66
f 78/9/67 77/8/65 73/2/59
f 74/5/61 78/9/67 73/2/59
f 75/2/62 79/8/68 78/9/69
f 74/5/63 75/2/62 78/9/69
f 76/7/70 79/8/68 75/2/62
f 72/1/64 76/7/70 75/2/62
f 79/8/68 76/7/70 82/10/71
f 79/8/68 82/10/71 80/12/72
f 78/9/69 79/8/68 80/12/72
f 82/10/73 81/11/20 76/7/66
f 77/8/65 82/10/73 76/7/66
f 80/12/74 82/10/73 77/8/65
f 78/9/67 80/12/74 77/8/65
f 54/3/43 84/2/59 83/1/60
f 54/3/43 83/1/60 53/4/10
f 54/3/43 55/6/12 85/5/61
f 54/3/43 85/5/61 84/2/59
f 56/3/47 86/2/62 85/5/63
f 56/3/47 85/5/63 55/6/4
f 56/3/47 53/4/6 83/1/64
f 56/3/47 83/1/64 86/2/62
f 84/2/59 88/8/65 87/7/66
f 84/2/59 87/7/66 83/1/60
f 84/2/59 85/5/61 89/9/67
f 84/2/59 89/9/67 88/8/65
f 86/2/62 90/8/68 89/9/69
f 86/2/62 89/9/69 85/5/63
f 86/2/62 83/1/64 87/7/70
f 86/2/62 87/7/70 90/8/68
f 93/10/71 90/8/68 87/7/70
f 93/10/71 87/7/70 92/11/39
f 90/8/68 93/10/71 91/12/72
f 90/8/68 91/12/72 89/9/69
f 87/7/66 88/8/65 93/10/73
f 91/12/74 93/10/73 88/8/65
f 91/12/74 88/8/65 89/9/67
f 94/1/41 95/2/42 69/3/43
f 94/1/41 69/3/43 68/4/10
f 69/3/43 95/2/42 96/5/44
f 69/3/43 96/5/44 70/6/12
f 96/5/45 97/2/46 71/3/47
f 96/5/45 71/3/47 70/6/4
f 71/3/47 97/2/46 94/1/48
f 71/3/47 94/1/48 68/4/6
f 98/7/49 99/8/50 95/2/42
f 98/7/49 95/2/42 94/1/41
f 95/2/42 99/8/50 100/9/51
f 95/2/42 100/9/51 96/5/44
f 100/9/52 101/8/53 97/2/46
f 100/9/52 97/2/46 96/5/45
f 97/2/46 101/8/53 98/7/54
f 97/2/46 98/7/54 94/1/48
f 104/10/55 103/11/39 98/7/54
f 104/10/55 98/7/54 101/8/53
f 102/12/56 104/10/55 101/8/53
f 102/12/56 101/8/53 100/9/52
f 98/7/49 104/10/57 99/8/50
f 99/8/50 104/10/57 102/12/58
f 99/8/50 102/12/58 100/9/51
f 109/1/75 110/2/76 106/3/77
f 105/4/78 109/1/75 106/3/77
f 111/5/79 107/6/80 106/3/77
f 110/2/76 111/5/79 106/3/77
f 111/5/81 112/2/82 108/3/83
f 107/6/84 111/5/81 108/3/83
f 109/1/85 105/4/86 108/3/83
f 112/2/82 109/1/85 108/3/83
f 113/7/87 114/8/88 110/2/76
f 109/1/75 113/7/87 110/2/76
f 115/9/89 111/5/79 110/2/76
f 114/8/88 115/9/89 110/2/76
f 115/9/90 116/8/91 112/2/82
f 111/5/81 115/9/90 112/2/82
f 113/7/92 109/1/85 112/2/82
f 116/8/91 113/7/92 112/2/82
f 113/7/92 116/8/91 119/10/93
f 118/11/39 113/7/92 119/10/93
f 117/12/94 119/10/93 116/8/91
f 115/9/90 117/12/94 116/8/91
f 119/10/95 114/8/88 113/7/87
f 114/8/88 119/10/95 117/12/96
f 115/9/89 114/8/88 117/12/96
f 121/3/77 125/2/97 124/1/98
f 120/4/78 121/3/77 124/1/98
f 126/5/99 125/2/97 121/3/77
f 122/6/80 126/5/99 121/3/77
f 123/3/83 127/2/100 126/5/101
f 122/6/84 123/3/83 126/5/101
f 124/1/102 127/2/100 123/3/83
f 120/4/86 124/1/102 123/3/83
f 125/2/97 129/8/103 128/7/104
f 124/1/98 125/2/97 128/7/104
f 130/9/105 129/8/103 125/2/97
f 126/5/99 130/9/105 125/2/97
f 127/2/100 131/8/106 130/9/107
f 126/5/101 127/2/100 130/9/107
f 128/7/108 131/8/106 127/2/100
f 124/1/102 128/7/108 127/2/100
f 131/8/106 128/7/108 134/10/109
f 131/8/106 134/10/109 132/12/110
f 130/9/107 131/8/106 132/12/110
f 134/10/111 133/11/20 128/7/104
f 129/8/103 134/10/111 128/7/104
f 132/12/112 134/10/111 129/8/103
f 130/9/105 132/12/112 129/8/103
f 106/3/77 136/2/97 135/1/98
f 106/3/77 135/1/98 105/4/78
f 106/3/77 107/6/80 137/5/99
f 106/3/77 137/5/99 136/2/97
f 108/3/83 138/2/100 137/5/101
f 108/3/83 137/5/101 107/6/84
f 108/3/83 105/4/86 135/1/102
f 108/3/83 135/1/102 138/2/100
f 136/2/97 140/8/103 139/7/104
f 136/2/97 139/7/104 135/1/98
f 136/2/97 137/5/99 141/9/105
f 136/2/97 141/9/105 140/8/103
f 138/2/100 142/8/106 141/9/107
f 138/2/100 141/9/107 137/5/101
f 138/2/100 135/1/102 139/7/108
f 138/2/100 139/7/108 142/8/106
f 145/10/109 142/8/106 139/7/108
f 145/10/109 139/7/108 144/11/39
f 142/8/106 145/10/109 143/12/110
f 142/8/106 143/12/110 141/9/107
f 139/7/104 140/8/103 145/10/111
f 143/12/112 145/10/111 140/8/103
f 143/12/112 140/8/103 141/9/105
f 146/1/75 147/2/76 121/3/77
f 146/1/75 121/3/77 120/4/78
f 121/3/77 147/2/76 148/5/79
f 121/3/77 148/5/79 122/6/80
f 148/5/81 149/2/82 123/3/83
f 148/5/81 123/3/83 122/6/84
f 123/3/83 149/2/82 146/1/85
f 123/3/83 146/1/85 120/4/86
f 150/7/87 151/8/88 147/2/76
f 150/7/87 147/2/76 146/1/75
f 147/2/76 151/8/88 152/9/89
f 147/2/76 152/9/89 148/5/79
f 152/9/90 153/8/91 149/2/82
f 152/9/90 149/2/82 148/5/81
f 149/2/82 153/8/91 150/7/92
f 149/2/82 150/7/92 146/1/85
f 156/10/93 155/11/39 150/7/92
f 156/10/93 150/7/92 153/8/91
f 154/12/94 156/10/93 153/8/91
f 154/12/94 153/8/91 152/9/90
f 150/7/87 156/10/95 151/8/88
f 151/8/88 156/10/95 154/12/96
f 151/8/88 154/12/96 152/9/89
f 161/1/113 162/2/114 158/3/115
f 157/4/84 161/1/113 158/3/115
f 163/5/116 159/6/86 158/3/115
f 162/2/114 163/5/116 158/3/115
f 163/5/117 164/2/118 160/3/119
f 159/6/78 163/5/117 160/3/119
f 161/1/120 157/4/80 160/3/119
f 164/2/118 161/1/120 160/3/119
f 165/7/121 166/8/122 162/2/114
f 161/1/113 165/7/121 162/2/114
f 167/9/123 163/5/116 162/2/114
f 166/8/122 167/9/123 162/2/114
f 167/9/124 168/8/125 164/2/118
f 163/5/117 167/9/124 164/2/118
f 165/7/126 161/1/120 164/2/118
f 168/8/125 165/7/126 164/2/118
f 165/7/126 168/8/125 171/10/127
f 170/11/20 165/7/126 171/10/127
f 169/12/128 171/10/127 168/8/125
f 167/9/124 169/12/128 168/8/125
f 171/10/129 166/8/122 165/7/121
f 166/8/122 171/10/129 169/12/130
f 167/9/123 166/8/122 169/12/130
f 173/3/115 177/2/131 176/1/132
f 172/4/84 173/3/115 176/1/132
f 178/5/133 177/2/131 173/3/115
f 174/6/86 178/5/133 173/3/115
f 175/3/119 179/2/134 178/5/135
f 174/6/78 175/3/119 178/5/135
f 176/1/136 179/2/134 175/3/119
f 172/4/80 176/1/136 175/3/119
f 177/2/131 181/8/137 180/7/138
f 176/1/132 177/2/131 180/7/138
f 182/9/139 181/8/137 177/2/131
f 178/5/133 182/9/139 177/2/131
f 179/2/134 183/8/140 182/9/141
f 178/5/135 179/2/134 182/9/141
f 180/7/142 183/8/140 179/2/134
f 176/1/136 180/7/142 179/2/134
f 183/8/140 180/7/142 186/10/143
f 183/8/140 186/10/143 184/12/144
f 182/9/141 183/8/140 184/12/144
f 186/10/145 185/11/39 180/7/138
f 181/8/137 186/10/145 180/7/138
f 184/12/146 186/10/145 181/8/137
f 182/9/139 184/12/146 181/8/137
f 158/3/115 188/2/131 187/1/132
f 158/3/115 187/1/132 157/4/84
f 158/3/115 159/6/86 189/5/133
f 158/3/115 189/5/133 188/2/131
f 160/3/119 190/2/134 189/5/135
f 160/3/119 189/5/135 159/6/78
f 160/3/119 157/4/80 187/1/136
f 160/3/119 187/1/136 190/2/134
f 188/2/131 192/8/137 191/7/138
f 188/2/131 191/7/138 187/1/132
f 188/2/131 189/5/133 193/9/139
f 188/2/131 193/9/139 192/8/137
f 190/2/134 194/8/140 193/9/141
f 190/2/134 193/9/141 189/5/135
f 190/2/134 187/1/136 191/7/142
f 190/2/134 191/7/142 194/8/140
f 197/10/143 194/8/140 191/7/142
f 197/10/143 191/7/142 196/11/20
f 194/8/140 197/10/143 195/12/144
f 194/8/140 195/12/144 193/9/141
f 191/7/138 192/8/137 197/10/145
f 195/12/146 197/10/145 192/8/137
f 195/12/146 192/8/137 193/9/139
f 198/1/113 199/2/114 173/3/115
f 198/1/113 173/3/115 172/4/84
f 173/3/115 199/2/114 200/5/116
f 173/3/115 200/5/116 174/6/86
f 200/5/117 201/2/118 175/3/119
f 200/5/117 175/3/119 174/6/78
f 175/3/119 201/2/118 198/1/120
f 175/3/119 198/1/120 172/4/80
f 202/7/121 203/8/122 199/2/114
f 202/7/121 199/2/114 198/1/113
f 199/2/114 203/8/122 204/9/123
f 199/2/114 204/9/123 200/5/116
f 204/9/124 205/8/125 201/2/118
f 204/9/124 201/2/118 200/5/117
f 201/2/118 205/8/125 202/7/126
f 201/2/118 202/7/126 198/1/120
f 208/10/127 207/11/20 202/7/126
f 208/10/127 202/7/126 205/8/125
f 206/12/128 208/10/127 205/8/125
f 206/12/128 205/8/125 204/9/124
f 202/7/121 208/10/129 203/8/122
f 203/8/122 208/10/129 206/12/130
f 203/8/122 206/12/130 204/9/123
