# Blender 4.3.0
# www.blender.org
mtllib 无标题.mtl
o base
v 0.000000 0.000543 -392.710327
v 0.000000 85.647781 92.380127
v 0.000000 0.000939 577.470459
v 0.000000 -85.646301 92.380127
v -1699.105835 0.000528 -448.589111
v -2137.261963 73.745628 -62.707275
v -2575.413330 0.000835 323.176514
v -2137.261963 -73.744255 -62.707275
v -3471.975098 0.000430 -678.425049
v -3949.140869 43.464951 -504.355103
v -4426.306641 0.000577 -330.285034
v -3949.140869 -43.463924 -504.355103
v -5159.799316 0.000236 -1165.327637
v -4684.160645 0.000174 -1321.317139
v -4982.289062 0.000191 -1269.406738
v 0.000000 0.000543 -392.710327
v 0.000000 85.647781 92.380127
v 0.000000 0.000939 577.470459
v 0.000000 -85.646301 92.380127
v 1699.105835 0.000528 -448.589111
v 2137.261963 73.745628 -62.707275
v 2575.413330 0.000835 323.176514
v 2137.261963 -73.744255 -62.707275
v 3471.975098 0.000430 -678.425049
v 3949.140869 43.464951 -504.355103
v 4426.306641 0.000577 -330.285034
v 3949.140869 -43.463924 -504.355103
v 5159.799316 0.000236 -1165.327637
v 4684.160645 0.000174 -1321.317139
v 4982.289062 0.000191 -1269.406738
v 1699.105835 0.000528 -448.589111
v 2137.261963 73.745628 -62.707275
v 2575.413330 0.000835 323.176514
v 2137.261963 -73.744255 -62.707275
v 3471.975098 0.000430 -678.425049
v 3949.140869 43.464951 -504.355103
v 4426.306641 0.000577 -330.285034
v 3949.140869 -43.463924 -504.355103
v 5159.799316 0.000236 -1165.327637
v 4684.160645 0.000174 -1321.317139
v 4982.289062 0.000191 -1269.406738
v -1699.105835 0.000528 -448.589111
v -2137.261963 73.745628 -62.707275
v -2575.413330 0.000835 323.176514
v -2137.261963 -73.744255 -62.707275
v -3471.975098 0.000430 -678.425049
v -3949.140869 43.464951 -504.355103
v -4426.306641 0.000577 -330.285034
v -3949.140869 -43.463924 -504.355103
v -5159.799316 0.000236 -1165.327637
v -4684.160645 0.000174 -1321.317139
v -4982.289062 0.000191 -1269.406738
vn 0.0115 0.9849 -0.1726
vn -0.0095 0.9998 -0.0160
vn -0.0000 1.0000 -0.0029
vn -0.0000 0.9848 -0.1739
vn -0.0275 0.9869 0.1591
vn -0.0000 0.9848 0.1739
vn -0.0275 -0.9869 0.1591
vn -0.0095 -0.9998 -0.0160
vn -0.0000 -1.0000 -0.0029
vn -0.0000 -0.9848 0.1739
vn 0.0116 -0.9849 -0.1727
vn -0.0000 -0.9848 -0.1739
vn 0.0234 0.9932 -0.1140
vn -0.0121 0.9995 -0.0293
vn -0.0541 0.9929 0.1057
vn -0.0541 -0.9929 0.1057
vn -0.0121 -0.9995 -0.0293
vn 0.0234 -0.9932 -0.1140
vn 0.0091 -0.9987 -0.0497
vn -0.0000 -1.0000 -0.0000
vn 0.0234 -0.9932 -0.1139
vn 0.0090 -0.9987 -0.0497
vn -0.0432 -0.9990 0.0133
vn 0.0091 0.9987 -0.0497
vn -0.0432 0.9990 0.0133
vn 0.0095 0.9998 -0.0160
vn -0.0116 0.9849 -0.1726
vn 0.0275 0.9869 0.1591
vn 0.0095 -0.9998 -0.0160
vn 0.0275 -0.9869 0.1591
vn -0.0115 -0.9849 -0.1726
vn 0.0121 0.9995 -0.0293
vn -0.0234 0.9932 -0.1140
vn 0.0541 0.9929 0.1057
vn 0.0121 -0.9995 -0.0293
vn 0.0541 -0.9929 0.1057
vn -0.0234 -0.9932 -0.1140
vn -0.0091 -0.9987 -0.0497
vn 0.0432 -0.9990 0.0133
vn -0.0090 0.9987 -0.0497
vn -0.0000 1.0000 -0.0000
vn -0.0234 0.9932 -0.1139
vn -0.0091 0.9987 -0.0497
vn 0.0432 0.9990 0.0133
vn -0.0116 0.9849 -0.1728
vn -0.0090 -0.9987 -0.0497
vn -0.0234 -0.9932 -0.1139
vt 0.485330 0.306890
vt 0.482820 0.453080
vt 0.675020 0.454150
vt 0.675020 0.304420
vt 0.479010 0.599820
vt 0.675020 0.603870
vt 0.298710 0.341250
vt 0.290620 0.452000
vt 0.276490 0.564730
vt 0.086310 0.416400
vt 0.110400 0.326640
vt 0.069290 0.507390
s 1
f 5/1/1 6/2/2 2/3/3
f 1/4/4 5/1/1 2/3/3
f 7/5/5 3/6/6 2/3/3
f 6/2/2 7/5/5 2/3/3
f 7/5/7 8/2/8 4/3/9
f 3/6/10 7/5/7 4/3/9
f 5/1/11 1/4/12 4/3/9
f 8/2/8 5/1/11 4/3/9
f 9/7/13 10/8/14 6/2/2
f 5/1/1 9/7/13 6/2/2
f 11/9/15 7/5/5 6/2/2
f 10/8/14 11/9/15 6/2/2
f 11/9/16 12/8/17 8/2/8
f 7/5/7 11/9/16 8/2/8
f 9/7/18 5/1/11 8/2/8
f 12/8/17 9/7/18 8/2/8
f 9/7/18 12/8/17 15/10/19
f 14/11/20 9/7/21 15/10/22
f 13/12/23 15/10/19 12/8/17
f 11/9/16 13/12/23 12/8/17
f 15/10/24 10/8/14 9/7/13
f 10/8/14 15/10/24 13/12/25
f 11/9/15 10/8/14 13/12/25
f 17/3/3 21/2/26 20/1/27
f 16/4/4 17/3/3 20/1/27
f 22/5/28 21/2/26 17/3/3
f 18/6/6 22/5/28 17/3/3
f 19/3/9 23/2/29 22/5/30
f 18/6/10 19/3/9 22/5/30
f 20/1/31 23/2/29 19/3/9
f 16/4/12 20/1/31 19/3/9
f 21/2/26 25/8/32 24/7/33
f 20/1/27 21/2/26 24/7/33
f 26/9/34 25/8/32 21/2/26
f 22/5/28 26/9/34 21/2/26
f 23/2/29 27/8/35 26/9/36
f 22/5/30 23/2/29 26/9/36
f 24/7/37 27/8/35 23/2/29
f 20/1/31 24/7/37 23/2/29
f 27/8/35 24/7/37 30/10/38
f 27/8/35 30/10/38 28/12/39
f 26/9/36 27/8/35 28/12/39
f 30/10/40 29/11/41 24/7/42
f 25/8/32 30/10/43 24/7/33
f 28/12/44 30/10/43 25/8/32
f 26/9/34 28/12/44 25/8/32
f 2/3/3 32/2/26 31/1/45
f 2/3/3 31/1/45 1/4/4
f 2/3/3 3/6/6 33/5/28
f 2/3/3 33/5/28 32/2/26
f 4/3/9 34/2/29 33/5/30
f 4/3/9 33/5/30 3/6/10
f 4/3/9 1/4/12 31/1/31
f 4/3/9 31/1/31 34/2/29
f 32/2/26 36/8/32 35/7/33
f 32/2/26 35/7/33 31/1/45
f 32/2/26 33/5/28 37/9/34
f 32/2/26 37/9/34 36/8/32
f 34/2/29 38/8/35 37/9/36
f 34/2/29 37/9/36 33/5/30
f 34/2/29 31/1/31 35/7/37
f 34/2/29 35/7/37 38/8/35
f 41/10/38 38/8/35 35/7/37
f 41/10/46 35/7/47 40/11/20
f 38/8/35 41/10/38 39/12/39
f 38/8/35 39/12/39 37/9/36
f 35/7/33 36/8/32 41/10/43
f 39/12/44 41/10/43 36/8/32
f 39/12/44 36/8/32 37/9/34
f 42/1/1 43/2/2 17/3/3
f 42/1/1 17/3/3 16/4/4
f 17/3/3 43/2/2 44/5/5
f 17/3/3 44/5/5 18/6/6
f 44/5/7 45/2/8 19/3/9
f 44/5/7 19/3/9 18/6/10
f 19/3/9 45/2/8 42/1/11
f 19/3/9 42/1/11 16/4/12
f 46/7/13 47/8/14 43/2/2
f 46/7/13 43/2/2 42/1/1
f 43/2/2 47/8/14 48/9/15
f 43/2/2 48/9/15 44/5/5
f 48/9/16 49/8/17 45/2/8
f 48/9/16 45/2/8 44/5/7
f 45/2/8 49/8/17 46/7/18
f 45/2/8 46/7/18 42/1/11
f 52/10/22 51/11/20 46/7/21
f 52/10/19 46/7/18 49/8/17
f 50/12/23 52/10/19 49/8/17
f 50/12/23 49/8/17 48/9/16
f 46/7/13 52/10/24 47/8/14
f 47/8/14 52/10/24 50/12/25
f 47/8/14 50/12/25 48/9/15
